/* XPM */
static char * bala_xpm[] = {
"9 67 200 2 ",
"   c #FB1C12",
".  c #F6240E",
"X  c #F8220F",
"o  c #F42C0D",
"O  c #F2340B",
"+  c #F92314",
"@  c #F62915",
"#  c #FB241C",
"$  c #F92C24",
"%  c #F9332C",
"&  c #F93934",
"*  c #F93A36",
"=  c #DA5D18",
"-  c #EC4E06",
";  c #EB4C0A",
":  c #F14D07",
">  c #F04508",
",  c #EC5608",
"<  c #F05403",
"1  c #F15D03",
"2  c #EA4814",
"3  c #F94713",
"4  c #E55516",
"5  c #F85C18",
"6  c #DF7A1B",
"7  c #ED680A",
"8  c #F26303",
"9  c #F46904",
"0  c #F56A09",
"q  c #F67506",
"w  c #F77804",
"e  c #F4720C",
"r  c #E46D12",
"t  c #FA6814",
"y  c #E47C1D",
"u  c #F77415",
"i  c #DE5B21",
"p  c #EB4824",
"a  c #EF5929",
"s  c #F15728",
"d  c #F34736",
"f  c #F9413E",
"g  c #EB5736",
"h  c #E95A3C",
"j  c #D36A27",
"k  c #DD7A29",
"l  c #C96D31",
"z  c #D76E34",
"x  c #CE7235",
"c  c #CA743C",
"v  c #EF6C2F",
"b  c #E57A29",
"n  c #E37730",
"m  c #8E7F79",
"M  c #F54D44",
"N  c #F94846",
"B  c #F84D4B",
"V  c #F65249",
"C  c #F65F4D",
"Z  c #F75454",
"A  c #F95150",
"S  c #F55B54",
"D  c #F75C5C",
"F  c #F85D5D",
"G  c #C97640",
"H  c #CB7B4D",
"J  c #D67E4F",
"K  c #C87F51",
"L  c #DA795D",
"P  c #E67949",
"I  c #F57947",
"U  c #F4635F",
"Y  c #F17755",
"T  c #F86464",
"R  c #F66C62",
"E  c #F86768",
"W  c #F86D6D",
"Q  c #E77B68",
"!  c #F87467",
"~  c #F7766F",
"^  c #F77374",
"/  c #F87575",
"(  c #F77870",
")  c #F77B7B",
"_  c #F87B7B",
"`  c #F88808",
"'  c #F98D09",
"]  c #FB9207",
"[  c #FA9D0D",
"{  c #E9861B",
"}  c #F78F14",
"|  c #EB9218",
" . c #F89D1B",
".. c #FBA20D",
"X. c #FBA310",
"o. c #FBAC14",
"O. c #FCB513",
"+. c #FCB516",
"@. c #FDBC1C",
"#. c #DE952D",
"$. c #E78726",
"%. c #EA8429",
"&. c #F0872C",
"*. c #EC922F",
"=. c #F89622",
"-. c #F79B25",
";. c #E88B34",
":. c #EE9A3A",
">. c #F29E3D",
",. c #FCBB23",
"<. c #FBB628",
"1. c #FBB834",
"2. c #FDC71A",
"3. c #FDCB19",
"4. c #FDCA2F",
"5. c #FDD222",
"6. c #FED923",
"7. c #FEDA2B",
"8. c #FDC730",
"9. c #FEDD3A",
"0. c #FEE032",
"q. c #A1807E",
"w. c #D78144",
"e. c #CB8254",
"r. c #C98359",
"t. c #D28852",
"y. c #E9925B",
"u. c #F4B740",
"i. c #D99D77",
"p. c #DA9F7A",
"a. c #E98767",
"s. c #F88069",
"d. c #F4906F",
"f. c #E68273",
"g. c #F58A7A",
"h. c #E59774",
"j. c #DAA27F",
"k. c #ECAE6E",
"l. c #E6A276",
"z. c #FAC74C",
"x. c #FEE443",
"c. c #FDEB65",
"v. c #F87F80",
"b. c #B5A39C",
"n. c #C69994",
"m. c #DE9E9C",
"M. c #F58684",
"N. c #F88282",
"B. c #F88A85",
"V. c #F78D8E",
"C. c #F88C8D",
"Z. c #F49B89",
"A. c #E29691",
"S. c #F79394",
"D. c #F89495",
"F. c #FA9C94",
"G. c #F69B9A",
"H. c #F89C9C",
"J. c #DDA686",
"K. c #E9AE8C",
"L. c #F0A68F",
"P. c #EBB387",
"I. c #EAAB95",
"U. c #E5B395",
"Y. c #E9B595",
"T. c #F6A4A4",
"R. c #F9A5A4",
"E. c #F5ACA5",
"W. c #F7A8A8",
"Q. c #F8A9A9",
"!. c #E8BDA5",
"~. c #F2B3A4",
"^. c #F6B0B0",
"/. c #F9B4B3",
"(. c #F4BCBB",
"). c #FABDBC",
"_. c #E7C1AE",
"`. c #ECC3AD",
"'. c #F3C1AE",
"]. c #E6C5B5",
"[. c #E9C7B7",
"{. c #ECC9BA",
"}. c #FCC0BE",
"|. c #F8C4BF",
" X c #123456",
".X c #123456",
"XX c #123456",
"oX c #123456",
"OX c #123456",
"+X c #123456",
"@X c #123456",
"#X c #123456",
"$X c #123456",
"%X c #123456",
"&X c #123456",
"*X c #123456",
"=X c #123456",
"-X c #123456",
";X c #123456",
":X c #123456",
/* pixels */
":X:X:X:X#X&X:X:X:X",
":X:X:X;X X@X:X:X:X",
":X:X:X#X^.|.;X:X:X",
":X:X:X XA.m.&X:X:X",
":X:X:XW.n.q.(.:X:X",
":X:X;XM.b.m G.;X:X",
":X:X$XQ !.c f.&X:X",
":X:X).Q `.G L oX:X",
":X:Xd.h.!.c H E.:X",
":X;Xb P.Y.x H a.;X",
":X%X%.Y.U.l e.z =X",
":X'.>.!.J.l K k %X",
":XI.:._.j.l e.#.K.",
":XL.;.].p.l e.$.y.",
":XZ.n ].i.l t.{ l.",
":Xg.n ].i.l e.{ K.",
":X! n ].i.l e.6 '.",
":XC v ].i.l r.y |.",
";Xs b [.i.l r.y ).",
"&Xs *.[.i.l e.= B.",
"@Xa %.{.i.l e.r s.",
").2 &.{.l.j w.{ I ",
"}.; -.`.k.b ;.} a ",
"F.1 X.$.u.z.|  .Y ",
"g.9 <...9.c.O.X.d.",
"R e 4.,.6.x.5.' P ",
"C 7 ,.4.6.6.2.9 i ",
"M 1 +.7.0.3.@.: P ",
"S - <.2.7.O.1.O E.",
"~ ; ,.o.5... .X $X",
"R.4 o.} ,.] u   $X",
"/.4 [ e ,.[ 0   }.",
"~.= ` =.8.o.0 # ).",
"U.j 7 -.@.+.t % .X",
"U.z , ` @.' t f =X",
"_.J 2 q @.w 5 A ;X",
"OXh.p 8 O.9 3 E :X",
"*XI.g 1 ..8 o ~ :X",
";X(.g < ' , . ( :X",
":XXXh > q ; X / :X",
":X+Xg o 9 2 + _ ;X",
":XoXh + : p $ N.:X",
":X$XU # O d & N.:X",
":X&XW # o d f C.:X",
":X=X/ # . M N V.:X",
":X;X/ # . S B S.;X",
":X;X_ $ . S Z D.:X",
":X;X) $ + V D G.:X",
":X:XV.% @ d F T.:X",
":X:XS.% $ d T W.:X",
":X;XD.& % M E /.:X",
":X;XD.& % S ^ ).:X",
":X:XH.f & R ) .X:X",
":X:XR.B f ^ N.@X:X",
":X:X/.A N / N.$X:X",
":X:X).F A ^ M.&X:X",
":X:X XE F / V.=X:X",
":X:X.XW E v.G.=X:X",
":X:XXX^ W C.Q.;X:X",
":X:X#X_ / S./.;X:X",
":X:X&XB.v.G.).:X:X",
":X:X;XH.M.D.(.:X:X",
":X:X;XQ.S.G.+X:X:X",
":X:X:X).G.T.=X:X:X",
":X:X:XoXW..X:X:X:X",
":X:X:X&X).-X:X:X:X",
":X:X:X;X-X:X:X:X:X"
};
