/* XPM */
static char *bomb_xpm[] = {
"32 31 115 2 ",
"   c #123456",
".  c #000000",
"X  c #010100",
"o  c #010101",
"O  c #020100",
"+  c #020101",
"@  c #010102",
"#  c #020202",
"$  c #f7f7f7",
"%  c #060301",
"&  c #050502",
"*  c #070603",
"=  c #ededed",
"-  c #060604",
";  c #060606",
":  c #070707",
">  c #0B0601",
",  c #0C0601",
"<  c #080604",
"1  c #0D0B07",
"2  c #090A0A",
"3  c #d9d9d9",
"4  c #0A0A0B",
"5  c #0B0C0C",
"6  c #0C0C0C",
"7  c #130A02",
"8  c #14120B",
"9  c #17160D",
"0  c #bfbfbf",
"q  c #131313",
"w  c #161616",
"e  c #161617",
"r  c #1F1B12",
"t  c #171718",
"y  c #191A1A",
"u  c #1B1B1C",
"i  c #1E1E1F",
"p  c #221204",
"a  c #351C07",
"s  c #1F1F20",
"d  c #1F2020",
"f  c #232324",
"g  c #232424",
"h  c #242525",
"j  c #242526",
"k  c #252526",
"l  c #262627",
"z  c #2A2926",
"x  c #2E2E2F",
"c  c #2E2F30",
"v  c #2F2F30",
"b  c #323334",
"n  c #333334",
"m  c #353536",
"M  c #373839",
"N  c #383839",
"B  c #38393A",
"V  c #393A3B",
"C  c #3B3C3D",
"Z  c #3D3D3E",
"A  c #3D3E3F",
"S  c #3E3E3F",
"D  c #492709",
"F  c #4F2A0A",
"G  c #5C310C",
"H  c #66360D",
"J  c #594B2D",
"K  c #414243",
"L  c #434445",
"P  c #444446",
"I  c #48494A",
"U  c #4C4D4E",
"Y  c #505052",
"T  c #525254",
"R  c #525354",
"E  c #555658",
"W  c #565759",
"Q  c #575859",
"!  c #595A5C",
"~  c #5C5D5F",
"^  c #5D5D5F",
"/  c #5D5E5F",
"(  c #786E47",
")  c #5D5E60",
"_  c #616264",
"`  c #626365",
"'  c #636365",
"]  c #636465",
"[  c #68696B",
"{  c #69696B",
"}  c #696A6C",
"|  c #6B6C6E",
" . c #6C6D6F",
".. c #6D6E70",
"X. c #834611",
"o. c #854711",
"O. c #954F13",
"+. c #9C5314",
"@. c #A15514",
"#. c #B86217",
"$. c #DB741C",
"%. c #DF761C",
"&. c #E1771C",
"*. c #EF7F1E",
"=. c #83774D",
"-. c #8A7E51",
";. c #F3811F",
":. c #F5821F",
">. c #988B59",
",. c #A89963",
"<. c #B7A76B",
"1. c #BCAC6E",
"2. c #BEAE70",
"3. c #C2B172",
"4. c #D6C37D",
/* pixels */
"                                                    . .         ",
"                                                p X.O.o.H 7 .   ",
"                                  ; 9 < .     , &.:.;.$.+.D %   ",
"                              & -.4.1.2.<.,.>.J *.:.%.@.a .     ",
"                              =.( .   . . & r 8 F #.G >         ",
"                        . . 1 3..                               ",
"                        L R Z z .                               ",
"                      . [ ......` d                             ",
"                  . . 4 c Z Q  ...i                             ",
"            . s P ) | ..} ! Z l Z ;                             ",
"          u ! ..................Y q                             ",
"      . m  .......................[ l                           ",
"      B ............................ .l                         ",
"    f ................................} q                       ",
"  ; ` ..................................R .                     ",
"  x ......................................y                     ",
". E ......................................K                     ",
";  .......................................^ .                   ",
"w ........................................| .                   ",
"u ..........................................;                   ",
"t ........................................ ..                   ",
"4 ........................................` .                   ",
". ^ ......................................I                     ",
"  B ......................................g                     ",
"  6 [ ..................................) .                     ",
"    b ................................ .s                       ",
"    . U ..............................B                         ",
"      ; U ..........................C .                         ",
"        . b [ ..................] l .                           ",
"            5 M ^ ........ .E c ;                               ",
"                . 4 t u w ; .                                   "
};
