/* XPM */
static char *hyphen_xpm[] = {
/* columns rows colors chars-per-pixel */
"122 135 57 1 ",
"  c #123456",
". c #FFFFFF",  // black
"X c #FFFFFF",
"o c #FFFFFF",
"O c #FFFFFF",  // gray1
"+ c #FFFFFF",
"@ c #FFFFFF",  // gray2
"# c #FFFFFF",
"$ c #FFFFFF",
"% c #FFFFFF",  // gray3
"& c #FFFFFF",
"* c #FFFFFF",  // gray4
"= c #FFFFFF",
"- c #FFFFFF",
"; c #FFFFFF",  // gray5
": c #FFFFFF",  // gray6
"> c #FFFFFF",
", c #FFFFFF",
"< c #FFFFFF",
"1 c #FFFFFF",
"2 c #FFFFFF",  // gray10
"3 c #FFFFFF",
"4 c #FFFFFF",
"5 c #FFFFFF",  // gray13
"6 c #FFFFFF",  // gray15
"7 c #FFFFFF",
"8 c #FFFFFF",
"9 c #FFFFFF",
"0 c #FFFFFF",  // gray25
"q c #FFFFFF",
"w c #FFFFFF",  // gray26
"e c #FFFFFF",
"r c #FFFFFF",
"t c #FFFFFF",  // gray27
"y c #FFFFFF",
"u c #FFFFFF",  // gray28
"i c #FFFFFF",
"p c #FFFFFF",
"a c #FFFFFF",  // gray29
"s c #FFFFFF",  // gray40
"d c #FFFFFF",
"f c #FFFFFF",  // gray79
"g c #FFFFFF",
"h c #FFFFFF",
"j c #FFFFFF",  // gray80
"k c #FFFFFF",  // gray81
"l c #FFFFFF",  // gray83
"z c #FFFFFF",  // gray84
"x c #FFFFFF",  // gray85
"c c #FFFFFF",  // gray86
"v c #FFFFFF",  // gray87
"b c #FFFFFF",
"n c #FFFFFF",  // gray89
"m c #FFFFFF",  // gray90
"M c #FFFFFF",
"N c #FFFFFF",
"B c #FFFFFF",  // gray93
/* pixels */
"                                                                                                                          ",
"                                                                                                                          ",
"                                                                                                                          ",
"                                                                                                                          ",
"                                                                                                                          ",
"                                                                                                                          ",
"                                                                                                                          ",
"                                                                                                                          ",
"                                                                                                                          ",
"                                                                                                                          ",
"                                                                                                                          ",
"                                                                                                                          ",
"                                                                                                                          ",
"                                                                                                                          ",
"                                                                                                                          ",
"                                                                                                                          ",
"                                                                                                                          ",
"                                                                                                                          ",
"                                                                                                                          ",
"                                                                                                                          ",
"                                                                                                                          ",
"                                                                                                                          ",
"                                                                                                                          ",
"                                                                                                                          ",
"                                                                                                                          ",
"                                                                                                                          ",
"                                                                                                                          ",
"                                                                                                                          ",
"                                                                                                                          ",
"                                                                                                                          ",
"                                                                                                                          ",
"                                                                                                                          ",
"                                                                                                                          ",
"                                                                                                                          ",
"                                                                                                                          ",
"                                                                                                                          ",
"                                                                                                                          ",
"                                                                                                                          ",
"                                                                                                                          ",
"                                                                                                                          ",
"                                                                                                                          ",
"                                                                                                                          ",
"                                                                                                                          ",
"                                                                                                                          ",
"                                                                                                                          ",
"                                                                                                                          ",
"                                                                                                                          ",
"                                                                                                                          ",
"                                                                                                                          ",
"                                                                                                                          ",
"                                                                                                                          ",
"                                                                                                                          ",
"                                                                                                                          ",
"                                                                                                                          ",
"                                                                                                                          ",
"                                                                                                                          ",
"                                                                                                                          ",
"                                                                                                                          ",
"                                                                                                                          ",
"                                                                                                                          ",
"                               .......$..................................................=d                               ",
"                             .=..............................................................                             ",
"                            ...$.............................................................                             ",
"                            .$................................................................                            ",
"                            .................................................................$                            ",
"                           .$...............................................................$.                            ",
"                           $$................................................................                             ",
"                            ..=..............................................................                             ",
"                              ............................................................                                ",
"                                                                                                                          ",
"                                                                                                                          ",
"                                                                                                                          ",
"                                                                                                                          ",
"                                                                                                                          ",
"                                                                                                                          ",
"                                                                                                                          ",
"                                                                                                                          ",
"                                                                                                                          ",
"                                                                                                                          ",
"                                                                                                                          ",
"                                                                                                                          ",
"                                                                                                                          ",
"                                                                                                                          ",
"                                                                                                                          ",
"                                                                                                                          ",
"                                                                                                                          ",
"                                                                                                                          ",
"                                                                                                                          ",
"                                                                                                                          ",
"                                                                                                                          ",
"                                                                                                                          ",
"                                                                                                                          ",
"                                                                                                                          ",
"                                                                                                                          ",
"                                                                                                                          ",
"                                                                                                                          ",
"                                                                                                                          ",
"                                                                                                                          ",
"                                                                                                                          ",
"                                                                                                                          ",
"                                                                                                                          ",
"                                                                                                                          ",
"                                                                                                                          ",
"                                                                                                                          ",
"                                                                                                                          ",
"                                                                                                                          ",
"                                                                                                                          ",
"                                                                                                                          ",
"                                                                                                                          ",
"                                                                                                                          ",
"                                                                                                                          ",
"                                                                                                                          ",
"                                                                                                                          ",
"                                                                                                                          ",
"                                                                                                                          ",
"                                                                                                                          ",
"                                                                                                                          ",
"                                                                                                                          ",
"                                                                                                                          ",
"                                                                                                                          ",
"                                                                                                                          ",
"                                                                                                                          ",
"                                                                                                                          ",
"                                                                                                                          ",
"                                                                                                                          ",
"                                                                                                                          ",
"                                                                                                                          ",
"                                                                                                                          ",
"                                                                                                                          ",
"                                                                                                                          ",
"                                                                                                                          ",
"                                                                                                                          ",
"                                                                                                                          ",
"                                                                                                                          ",
"                                                                                                                          "
};
