/* XPM */
static char * mouseClick_xpm[] = {
"50 50 38 1 ",
 "  c #123456",
    ". c #101010",
    "X c #111111",
    "o c #121212",  
    "O c #151515",
    "+ c #161616",
    "@ c #1B1B1B",
    "# c #1E1E1E",
    "$ c #242424",  
    "% c #2E2E2E",  
    "& c #3A3A3A",
    "* c #3C3C3C",
    "= c #464646",
    "- c #474747",  
    "; c #515151",  
    ": c #5E5E5E",  
    "> c #5F5F5F",
    ", c #6A6A6A",
    "< c #767676",
    "1 c #828282",  
    "2 c #888888",
    "3 c #898989",
    "4 c #8E8E8E",
    "5 c #9A9A9A",
    "6 c #A6A6A6",  
    "7 c #ABABAB",  
    "8 c #ACACAC",
    "9 c #ADADAD",  
    "0 c #B2B2B2",
    "q c #BEBEBE",  
    "w c #C7C7C7",  
    "e c #C9C9C9",  
    "r c #D2D2D2",
    "t c #D6D6D6", 
    "y c #D7D7D7",
    "u c #D8D8D8",
    "i c #DCDCDC", 
"p c #FFFF00",
/* pixels */
"XX                                                ",
"XXXXX                                             ",
" XXXXXXX                                          ",
" XX3<&XXXXXX                                      ",
" XX<ppe4;@XXXXX                                   ",
"  X&pppppu6,%XXXXXX                               ",
"  XXeppppppppq1=+XXXXX                            ",
"  XX4pppppppppppr5:$XXXXX                         ",
"   X;ppppppppppppppp0<&XXXXXX                     ",
"   X@upppppppppppppppppe4;@XXXXX                  ",
"   XX6ppppppppppppppppppppu6,%XXXXXX              ",
"   XX,ppppppppppppppppppppppppq1=+XXXXX           ",
"    X%pppppppppppppppppppppppppppr5:$XXXXX        ",
"    XXqpppppppppppppppppppppppppppppp0<&XXXXXX    ",
"    XX1pppppppppppppppppppppppppppppppppe4;@XXXX  ",
"     X=pppppppppppppppppppppppppppppppppppw*XX    ",
"     X+rppppppppppppppppppppppppppppppppp9$XX     ",
"     XX5pppppppppppppppppppppppppppppppp3+XX      ",
"     XX:ppppppppppppppppppppppppppppppy:XXX       ",
"      X$pppppppppppppppppppppppppppppw*XX         ",
"      XX0ppppppppppppppppppppppppppp9$XX          ",
"      XX<pppppppppppppppppppppppppp3+XX           ",
"       X&ppppppppppppppppppppppppy:XXX            ",
"       XXeppppppppppppppppppppppw*XX              ",
"       XX4ppppppppppppppppppppp9$XX               ",
"        X;ppppppppppppppppppppp0#XX               ",
"        X@uppppppppppppppppppppp0#XX              ",
"        XX6pppppppppppppppppppppp0#XX             ",
"        XX,ppppppppppppppppppppppp0#XX            ",
"         X%pppppppppppppppppppppppp0#XX           ",
"         XXqpppppppppppppppppppppppp0#XX          ",
"         XX1pppppppppppp90ppppppppppp0#XX         ",
"          X=pppppppppppw$#0ppppppppppp0#XX        ",
"          X+rpppppppppy*XX#0ppppppppppp0#XX       ",
"          XX5ppppppppp:XXXX#0ppppppppppp0#XX      ",
"          XX:pppppppp3XX  XX#0ppppppppppp0#XX     ",
"           X$ppppppp9+X    XX#0ppppppppppp0#XX    ",
"           XX0pppppw$XX     XX#0ppppppppppp0#XX   ",
"           XX<ppppy*XX       XX#0ppppppppppp0#XX  ",
"            X&pppp:XX         XX#0ppppppppppp0#XX ",
"            XXepp3XX           XX#0ppppppppppp7XXX",
"            XX4p9+X             XX#0pppppppppy=XX ",
"             X;w$XX              XX#0pppppppy=XX  ",
"             X@*XX                XX#0pppppy=XX   ",
"             XXXX                  XX#0pppy=XX    ",
"             XXX                    XX#0py=XX     ",
"              X                      XX#7=XX      ",
"              X                       XXXXX       ",
"                                       XXX        ",
"                                        X         "
};
