/* XPM */
static char *slash_xpm[] = {
/* columns rows colors chars-per-pixel */
"30 55 69 1 ",
"  c #123456",
". c #1C1C1C",
"X c #1E1E1E",
"o c #202020",
"O c #202020",
"+ c #222222",
"@ c #232323",
"# c #232323",
"$ c #252525",
"% c #252525",
"& c #272727",
"* c #272727",
"= c #282828",
"- c #2A2A2A",
"; c #2A2A2A",
": c #2C2C2C",
"> c #2C2C2C",
", c #2D2D2D",
"< c #2F2F2F",
"1 c #2F2F2F",
"2 c #313131",
"3 c #313131",
"4 c #323232",
"5 c #343434",
"6 c #343434",
"7 c #353535",
"8 c #373737",
"9 c #373737",
"0 c #393939",
"q c #3C3C3C",
"w c #3C3C3C",
"e c #3E3E3E",
"r c #3F3F3F",
"t c #434343",
"y c #464646",
"u c #484848",
"i c #494949",
"p c #4B4B4B",
"a c #4C4C4C",
"s c #4C4C4C",
"d c #505050",
"f c #515151",
"g c #515151",
"h c #535353",
"j c #535353",
"k c #555555",
"l c #555555",
"z c #585858",
"x c #5A5A5A",
"c c #5B5B5B",
"v c #5D5D5D",
"b c #5F5F5F",
"n c #5F5F5F",
"m c #646464",
"M c #676767",
"N c #686868",
"B c #686868",
"V c #6C6C6C",
"C c #6F6F6F",
"Z c #797979",
"A c #797979",
"S c #797979",
"D c #818181",
"F c #818181",
"G c #888888",
"H c #888888",
"J c #909090",
"K c #909090",
"L c #909090",
/* pixels */
"                          uf  ",
"                         %%-8 ",
"                        8#<-.f",
"                        #<%-<u",
"                       3<%-%%J",
"                       %%---r ",
"                      -<#8#-H ",
"                     A<%<%<8  ",
"                     8-%-%%J  ",
"                     -#<%39   ",
"                    r%--%-G   ",
"                    %%3#-8    ",
"                   3<-<-%D    ",
"                   #--%-<     ",
"                  8<%---S     ",
"                  ---%<3      ",
"                 8-<--%D      ",
"                 3-%--3       ",
"                9%-%-<A       ",
"                --<%%<        ",
"               r-%-%3A        ",
"               #-%--8         ",
"              r<--3%N         ",
"             L-%-%%<          ",
"             r-----C          ",
"             3.<%-<           ",
"            r%<%--C           ",
"            %-<--<            ",
"           r-<%--N            ",
"           -%--%<             ",
"          u-<%%-m             ",
"          -%--3-              ",
"         r-<%-<b              ",
"         3%#<%%               ",
"        y%----c               ",
"        -%--#3                ",
"       u---%-m                ",
"       %%--3-                 ",
"      a<-<%<l                 ",
"      -%---%                  ",
"     f%--%<c                  ",
"     -<%--<                   ",
"    f-#<-<l                   ",
"    ----%%                    ",
"   l-%<%-f                    ",
"   -%<%--                     ",
"  c<%%<-l                     ",
"  %--<%-                      ",
" f-<%<%a                      ",
" <<.--%                       ",
"m<%<<-u                       ",
"<%%--%                        ",
"t---%l                        ",
" %--%                         ",
"  bN                          "
};
